Normalized EMG Linear Envelopes
nRows=175
nColumns=4

endheader
time	 med_gas_r	  soleus_r	 tib_ant_r	
3.9375	  0.003304	  0.016749	  0.001377	
4	  0.003013	  0.017138	  0.001387	
4.0625	  0.002824	  0.017705	  0.001389	
4.125	  0.002716	  0.018333	  0.001411	
4.1875	  0.002697	  0.018930	  0.001465	
4.25	  0.002813	  0.019435	  0.001523	
4.3125	  0.003026	  0.019759	  0.001524	
4.375	  0.003237	  0.019942	  0.001446	
4.4375	  0.003399	  0.020117	  0.001354	
4.5	  0.003507	  0.020292	  0.001321	
4.5625	  0.003554	  0.020390	  0.001334	
4.625	  0.003517	  0.020370	  0.001353	
4.6875	  0.003410	  0.020051	  0.001354	
4.75	  0.003287	  0.019337	  0.001337	
4.8125	  0.003189	  0.018198	  0.001328	
4.875	  0.003134	  0.016795	  0.001332	
4.9375	  0.003102	  0.015434	  0.001351	
5	  0.003062	  0.014338	  0.001375	
5.0625	  0.002993	  0.013486	  0.001420	
5.125	  0.002903	  0.012847	  0.001546	
5.1875	  0.002829	  0.012401	  0.001876	
5.25	  0.002781	  0.012013	  0.002546	
5.3125	  0.002775	  0.011691	  0.003483	
5.375	  0.002782	  0.011488	  0.004206	
5.4375	  0.002775	  0.011451	  0.003927	
5.5	  0.002736	  0.011523	  0.003072	
5.5625	  0.002656	  0.011474	  0.002243	
5.625	  0.002567	  0.011309	  0.001657	
5.6875	  0.002520	  0.011256	  0.001346	
5.75	  0.002620	  0.011876	  0.001209	
5.8125	  0.003069	  0.014198	  0.001190	
5.875	  0.003990	  0.019188	  0.001271	
5.9375	  0.005333	  0.026890	  0.001406	
6	  0.006743	  0.034656	  0.001511	
6.0625	  0.008017	  0.036327	  0.001546	
6.125	  0.009515	  0.034316	  0.001579	
6.1875	  0.011344	  0.034964	  0.001717	
6.25	  0.014458	  0.041551	  0.002019	
6.3125	  0.019440	  0.051930	  0.002487	
6.375	  0.025234	  0.063565	  0.003066	
6.4375	  0.029927	  0.072109	  0.003711	
6.5	  0.034760	  0.081231	  0.004603	
6.5625	  0.040505	  0.092070	  0.005671	
6.625	  0.049428	  0.110308	  0.006960	
6.6875	  0.063900	  0.143541	  0.008575	
6.75	  0.082731	  0.181948	  0.010036	
6.8125	  0.096297	  0.205751	  0.010561	
6.875	  0.100712	  0.211691	  0.010666	
6.9375	  0.101289	  0.212972	  0.011117	
7	  0.103953	  0.219158	  0.012279	
7.0625	  0.109379	  0.229345	  0.013610	
7.125	  0.118702	  0.242219	  0.014347	
7.1875	  0.131246	  0.257453	  0.014564	
7.25	  0.146685	  0.279899	  0.015761	
7.3125	  0.172891	  0.319079	  0.019549	
7.375	  0.215900	  0.372690	  0.025405	
7.4375	  0.271518	  0.429432	  0.030786	
7.5	  0.324160	  0.474747	  0.035071	
7.5625	  0.359713	  0.511664	  0.039570	
7.625	  0.392847	  0.543662	  0.044438	
7.6875	  0.431218	  0.574352	  0.049011	
7.75	  0.465853	  0.593903	  0.052875	
7.8125	  0.502505	  0.594885	  0.057378	
7.875	  0.556950	  0.585850	  0.064178	
7.9375	  0.626793	  0.572973	  0.071521	
8	  0.695779	  0.555663	  0.076633	
8.0625	  0.745634	  0.538582	  0.079329	
8.125	  0.771874	  0.533582	  0.081549	
8.1875	  0.790225	  0.558840	  0.084424	
8.25	  0.815698	  0.612055	  0.086870	
8.3125	  0.817766	  0.659295	  0.086504	
8.375	  0.788851	  0.675022	  0.085328	
8.4375	  0.760825	  0.669337	  0.085242	
8.5	  0.755257	  0.662289	  0.085223	
8.5625	  0.780111	  0.669238	  0.085669	
8.625	  0.829183	  0.687271	  0.088170	
8.6875	  0.881881	  0.705932	  0.090779	
8.75	  0.903625	  0.708042	  0.090988	
8.8125	  0.899202	  0.698105	  0.088358	
8.875	  0.889950	  0.697939	  0.086556	
8.9375	  0.878025	  0.716745	  0.087894	
9	  0.858474	  0.752313	  0.090752	
9.0625	  0.840971	  0.793364	  0.094219	
9.125	  0.832216	  0.826365	  0.096833	
9.1875	  0.828649	  0.841151	  0.097347	
9.25	  0.827454	  0.850047	  0.095835	
9.3125	  0.835499	  0.854254	  0.091481	
9.375	  0.860299	  0.833633	  0.086041	
9.4375	  0.883434	  0.787262	  0.082334	
9.5	  0.890407	  0.729603	  0.080900	
9.5625	  0.894326	  0.677920	  0.082454	
9.625	  0.911702	  0.643150	  0.086787	
9.6875	  0.941935	  0.626951	  0.091599	
9.75	  0.959232	  0.618324	  0.094066	
9.8125	  0.924172	  0.617398	  0.092189	
9.875	  0.867918	  0.636403	  0.088229	
9.9375	  0.829612	  0.666280	  0.084174	
10	  0.814151	  0.677988	  0.081721	
10.0625	  0.824152	  0.669000	  0.083051	
10.125	  0.830721	  0.649741	  0.085457	
10.1875	  0.816863	  0.630969	  0.084785	
10.25	  0.801075	  0.611453	  0.081306	
10.3125	  0.780593	  0.596676	  0.076363	
10.375	  0.755684	  0.593518	  0.072254	
10.4375	  0.731186	  0.592957	  0.068974	
10.5	  0.713662	  0.596753	  0.065913	
10.5625	  0.714244	  0.595445	  0.062820	
10.625	  0.717808	  0.578894	  0.060958	
10.6875	  0.712254	  0.547422	  0.062367	
10.75	  0.707300	  0.517254	  0.067079	
10.8125	  0.718710	  0.499049	  0.072624	
10.875	  0.754859	  0.500662	  0.077900	
10.9375	  0.827130	  0.527734	  0.082950	
11	  0.914902	  0.572608	  0.087131	
11.0625	  0.970725	  0.611758	  0.091454	
11.125	  0.962343	  0.623581	  0.093170	
11.1875	  0.910549	  0.611184	  0.090834	
11.25	  0.852775	  0.601235	  0.086485	
11.3125	  0.799692	  0.594819	  0.081987	
11.375	  0.769987	  0.588039	  0.077485	
11.4375	  0.752318	  0.578852	  0.073365	
11.5	  0.738633	  0.573322	  0.070208	
11.5625	  0.725486	  0.565557	  0.068142	
11.625	  0.716446	  0.559360	  0.066093	
11.6875	  0.728827	  0.546269	  0.064056	
11.75	  0.756164	  0.524149	  0.062883	
11.8125	  0.780792	  0.496100	  0.063533	
11.875	  0.795594	  0.458630	  0.064686	
11.9375	  0.789796	  0.414565	  0.066186	
12	  0.740640	  0.360215	  0.069166	
12.0625	  0.636054	  0.292693	  0.076590	
12.125	  0.491970	  0.212299	  0.095382	
12.1875	  0.330406	  0.140347	  0.126941	
12.25	  0.183859	  0.092405	  0.154433	
12.3125	  0.078485	  0.066914	  0.164397	
12.375	  0.020323	  0.056980	  0.165917	
12.4375	 -0.002438	  0.053640	  0.162873	
12.5	 -0.005987	  0.048964	  0.149967	
12.5625	 -0.002448	  0.040908	  0.122898	
12.625	  0.001864	  0.031893	  0.089585	
12.6875	  0.004894	  0.024404	  0.060516	
12.75	  0.006483	  0.019619	  0.036610	
12.8125	  0.007099	  0.017462	  0.018480	
12.875	  0.007322	  0.016990	  0.007810	
12.9375	  0.007365	  0.017133	  0.003303	
13	  0.007126	  0.016970	  0.002265	
13.0625	  0.006402	  0.016186	  0.002489	
13.125	  0.005410	  0.015123	  0.002926	
13.1875	  0.004539	  0.014361	  0.003297	
13.25	  0.004062	  0.014248	  0.003623	
13.3125	  0.004218	  0.014740	  0.003891	
13.375	  0.005464	  0.015635	  0.004050	
13.4375	  0.008391	  0.016790	  0.004172	
13.5	  0.012953	  0.018225	  0.004453	
13.5625	  0.017625	  0.019536	  0.005031	
13.625	  0.018893	  0.019598	  0.005807	
13.6875	  0.016200	  0.018418	  0.006495	
13.75	  0.011764	  0.017314	  0.006724	
13.8125	  0.008043	  0.016836	  0.006505	
13.875	  0.005900	  0.016710	  0.006077	
13.9375	  0.005078	  0.016597	  0.005484	
14	  0.005027	  0.016518	  0.005022	
14.0625	  0.005255	  0.016527	  0.004787	
14.125	  0.005397	  0.016611	  0.004706	
14.1875	  0.005288	  0.016928	  0.004729	
14.25	  0.005033	  0.017418	  0.004687	
14.3125	  0.004710	  0.017908	  0.004459	
14.375	  0.004436	  0.018306	  0.004146	
14.4375	  0.004242	  0.018468	  0.003793	
14.5	  0.004089	  0.018515	  0.003521	
14.5625	  0.003957	  0.018576	  0.003332	
14.625	  0.003846	  0.018673	  0.003171	
14.6875	  0.003755	  0.018800	  0.002993	
14.75	  0.003685	  0.018859	  0.002789	
14.8125	  0.003675	  0.018814	  0.002573	
